<svg width="686" height="800" viewBox="0 0 686 800" fill="none" xmlns="http://www.w3.org/2000/svg">
<path d="M131.446 264.062H554.552V608.848C554.552 629.331 537.946 645.937 517.488 645.937H475.109V750.942C475.109 777.607 453.84 799.218 427.585 799.218C401.263 799.218 380.026 777.607 380.026 750.942V645.937H306.009V750.942C306.009 777.607 284.698 799.218 258.445 799.218C232.196 799.218 210.887 777.607 210.887 750.942V645.937H168.545C148.082 645.937 131.445 629.331 131.445 608.848L131.446 264.062ZM48.532 261.248C22.0102 261.248 0.527344 283.065 0.527344 309.998V500.525C0.527344 527.426 22.0102 549.281 48.532 549.281C75.0586 549.281 96.5367 527.426 96.5367 500.525V309.998C96.5367 283.065 75.0586 261.248 48.532 261.248ZM554.554 229.318H131.446C136.668 169.04 175.77 117.168 232.059 87.134L191.83 28.0652C186.405 20.0996 188.452 9.23086 196.434 3.80742C204.405 -1.61601 215.252 0.446486 220.704 8.40586L264.549 72.8309C288.859 64.4246 315.246 59.5981 342.999 59.5981C370.785 59.5981 397.174 64.4246 421.482 72.8418L465.327 8.4293C470.712 0.448048 481.593 -1.61445 489.565 3.80899C497.546 9.23242 499.593 20.1012 494.168 28.0668L453.973 87.1355C510.26 117.151 549.335 169.023 554.554 229.318ZM277.163 147.414C277.163 134.487 266.696 124.003 253.774 124.003C240.82 124.003 230.352 134.487 230.352 147.414C230.352 160.334 240.854 170.814 253.774 170.814C266.695 170.814 277.163 160.334 277.163 147.414ZM458.612 147.414C458.612 134.487 448.109 124.003 435.19 124.003C422.235 124.003 411.799 134.487 411.799 147.414C411.799 160.334 422.235 170.814 435.19 170.814C448.11 170.814 458.612 160.334 458.612 147.414ZM637.499 261.181C611.005 261.181 589.462 283.031 589.462 309.965V500.559C589.462 527.493 611.005 549.35 637.499 549.35C664.027 549.35 685.47 527.495 685.47 500.559V309.965C685.471 283.031 664.027 261.181 637.499 261.181Z" fill="#37BD4D"/>
</svg>
