<svg width="805" height="134" viewBox="0 0 805 134" fill="none" xmlns="http://www.w3.org/2000/svg">
<g filter="url(#filter0_d_576_17)">
<path d="M71.0937 108.547C100.089 108.547 123.594 85.0418 123.594 56.0469C123.594 27.0519 100.089 3.54688 71.0937 3.54688C42.0988 3.54688 18.5938 27.0519 18.5938 56.0469C18.5938 85.0418 42.0988 108.547 71.0937 108.547Z" stroke="black" stroke-width="1.96"/>
</g>
<path d="M71.0937 108.547C100.089 108.547 123.594 85.0418 123.594 56.0469C123.594 27.0519 100.089 3.54688 71.0937 3.54688C42.0988 3.54688 18.5938 27.0519 18.5938 56.0469C18.5938 85.0418 42.0988 108.547 71.0937 108.547Z" stroke="#5231BD" stroke-width="1.96"/>
<g filter="url(#filter1_d_576_17)">
<path fill-rule="evenodd" clip-rule="evenodd" d="M91.3679 0.5C92.8978 0.5 94.3933 0.953649 95.6653 1.80358C96.9373 2.65351 97.9287 3.86155 98.5141 5.27494C99.0996 6.68833 99.2528 8.24358 98.9543 9.74402C98.6559 11.2445 97.9192 12.6227 96.8374 13.7045C95.7556 14.7862 94.3774 15.5229 92.877 15.8214C91.3765 16.1198 89.8213 15.9667 88.4079 15.3812C86.9945 14.7958 85.7865 13.8043 84.9365 12.5323C84.0866 11.2603 83.6329 9.76484 83.6329 8.235C83.6329 6.18355 84.4479 4.21612 85.8985 2.76553C87.3491 1.31493 89.3165 0.5 91.3679 0.5ZM20.4459 65.164C21.9761 65.1638 23.4719 65.6174 24.7442 66.4673C26.0165 67.3173 27.0082 68.5255 27.5939 69.9391C28.1795 71.3527 28.3328 72.9082 28.0343 74.409C27.7359 75.9097 26.9991 77.2882 25.9171 78.3702C24.8352 79.4521 23.4566 80.1889 21.9559 80.4874C20.4552 80.7859 18.8996 80.6326 17.486 80.0469C16.0724 79.4613 14.8642 78.4696 14.0143 77.1973C13.1643 75.9249 12.7107 74.4291 12.7109 72.899C12.7117 70.8481 13.527 68.8814 14.9775 67.4315C16.428 65.9815 18.395 65.167 20.4459 65.167V65.164ZM110.146 86.024C111.676 86.024 113.171 86.4776 114.443 87.3276C115.715 88.1775 116.707 89.3856 117.292 90.799C117.878 92.2123 118.031 93.7676 117.732 95.268C117.434 96.7685 116.697 98.1467 115.615 99.2285C114.534 100.31 113.155 101.047 111.655 101.345C110.155 101.644 108.599 101.491 107.186 100.905C105.772 100.32 104.564 99.3283 103.715 98.0563C102.865 96.7843 102.411 95.2888 102.411 93.759C102.412 91.709 103.227 89.7433 104.676 88.2935C106.125 86.8438 108.091 86.0286 110.141 86.027L110.146 86.024Z" fill="black" stroke="black"/>
</g>
<path fill-rule="evenodd" clip-rule="evenodd" d="M91.3679 0.5C92.8978 0.5 94.3933 0.953649 95.6653 1.80358C96.9373 2.65351 97.9287 3.86155 98.5141 5.27494C99.0996 6.68833 99.2528 8.24358 98.9543 9.74402C98.6559 11.2445 97.9192 12.6227 96.8374 13.7045C95.7556 14.7862 94.3774 15.5229 92.877 15.8214C91.3765 16.1198 89.8213 15.9667 88.4079 15.3812C86.9945 14.7958 85.7865 13.8043 84.9365 12.5323C84.0866 11.2603 83.6329 9.76484 83.6329 8.235C83.6329 6.18355 84.4479 4.21612 85.8985 2.76553C87.3491 1.31493 89.3165 0.5 91.3679 0.5ZM20.4459 65.164C21.9761 65.1638 23.4719 65.6174 24.7442 66.4673C26.0165 67.3173 27.0082 68.5255 27.5939 69.9391C28.1795 71.3527 28.3328 72.9082 28.0343 74.409C27.7359 75.9097 26.9991 77.2882 25.9171 78.3702C24.8352 79.4521 23.4566 80.1889 21.9559 80.4874C20.4552 80.7859 18.8996 80.6326 17.486 80.0469C16.0724 79.4613 14.8642 78.4696 14.0143 77.1973C13.1643 75.9249 12.7107 74.4291 12.7109 72.899C12.7117 70.8481 13.527 68.8814 14.9775 67.4315C16.428 65.9815 18.395 65.167 20.4459 65.167V65.164ZM110.146 86.024C111.676 86.024 113.171 86.4776 114.443 87.3276C115.715 88.1775 116.707 89.3856 117.292 90.799C117.878 92.2123 118.031 93.7676 117.732 95.268C117.434 96.7685 116.697 98.1467 115.615 99.2285C114.534 100.31 113.155 101.047 111.655 101.345C110.155 101.644 108.599 101.491 107.186 100.905C105.772 100.32 104.564 99.3283 103.715 98.0563C102.865 96.7843 102.411 95.2888 102.411 93.759C102.412 91.709 103.227 89.7433 104.676 88.2935C106.125 86.8438 108.091 86.0286 110.141 86.027L110.146 86.024Z" fill="#5231BD" stroke="#5231BD"/>
<g filter="url(#filter2_d_576_17)">
<path fill-rule="evenodd" clip-rule="evenodd" d="M228.758 26.2601H182V82.7051H196.337V60.6181H214.162V48.7311H196.337V38.4011H228.758V26.2601ZM287.269 81.0311C287.954 80.5524 288.512 79.9143 288.895 79.1718C289.279 78.4293 289.475 77.6046 289.469 76.7691V26.1311H274.611V70.6941H253.686V26.1311H238.832V76.7651C238.824 77.6003 239.02 78.4248 239.403 79.1674C239.785 79.9099 240.343 80.5482 241.027 81.0271C242.554 82.1678 244.422 82.7595 246.327 82.7061H281.977C283.879 82.7588 285.744 82.1687 287.269 81.0311ZM344.746 80.9671C345.429 80.4718 345.985 79.8212 346.368 79.0689C346.75 78.3166 346.949 77.4841 346.946 76.6401V54.0311C346.948 53.1871 346.75 52.3547 346.367 51.6024C345.985 50.8501 345.429 50.1995 344.746 49.7041C343.32 48.5557 341.539 47.9394 339.709 47.9611H317.88V38.0151H346.947V26.0011H310.517C308.626 25.9707 306.781 26.5858 305.286 27.7451C304.599 28.2118 304.035 28.8373 303.642 29.5685C303.249 30.2996 303.037 31.1149 303.026 31.9451V54.0311C303.026 54.8811 303.231 55.7186 303.625 56.472C304.018 57.2255 304.588 57.8726 305.286 58.3581C306.781 59.5173 308.626 60.1325 310.517 60.1021H332.217V70.6941H303.026V82.7061H339.709C341.54 82.7277 343.321 82.111 344.747 80.9621L344.746 80.9671ZM375.486 26.2671H360.761V82.7121H375.486V26.2601V26.2671ZM405.452 38.2791H426.252V70.7001H405.452V38.2721V38.2791ZM438.712 81.0331C439.381 80.5439 439.924 79.9019 440.294 79.1605C440.665 78.4192 440.853 77.5999 440.843 76.7711V32.2011C440.838 31.3836 440.644 30.5784 440.274 29.8493C439.904 29.1203 439.369 28.4875 438.712 28.0011C437.273 26.8325 435.465 26.2146 433.612 26.2581H398.089C396.216 26.2212 394.39 26.8375 392.922 28.0011C392.25 28.4776 391.701 29.1068 391.319 29.837C390.938 30.5671 390.735 31.3773 390.727 32.2011V76.7641C390.719 77.5993 390.915 78.4238 391.298 79.1664C391.68 79.9089 392.238 80.5472 392.922 81.0261C394.406 82.1526 396.227 82.7443 398.089 82.7051H433.61C435.453 82.7523 437.255 82.1609 438.712 81.0311V81.0331ZM494.312 26.2671V53.3921L474.812 26.2671H454.012V82.7121H468.349V44.4721L496.249 82.7051H509.047V26.2601H494.317L494.312 26.2671Z" fill="#5231BD"/>
</g>
<g filter="url(#filter3_d_576_17)">
<path fill-rule="evenodd" clip-rule="evenodd" d="M598.758 26.0041H552V82.4491H566.337V60.3621H584.162V48.4751H566.337V38.1451H598.758V26.0041ZM607.54 26.0041V82.4491H649.519V70.4371H622.265V26.0041H607.54ZM676.773 38.0161H697.573V70.4371H676.773V38.0161ZM710.034 80.7751C710.703 80.286 711.246 79.6439 711.616 78.9026C711.987 78.1612 712.175 77.3419 712.165 76.5131V31.9451C712.16 31.1276 711.966 30.3224 711.596 29.5934C711.226 28.8643 710.691 28.2315 710.034 27.7451C708.595 26.5771 706.787 25.9593 704.934 26.0021H669.411C667.538 25.965 665.711 26.5813 664.244 27.7451C663.571 28.2212 663.021 28.8501 662.638 29.5803C662.256 30.3104 662.052 31.1209 662.044 31.9451V76.5081C662.037 77.3437 662.234 78.1685 662.617 78.9111C663 79.6536 663.559 80.2917 664.244 80.7701C665.728 81.8967 667.549 82.4885 669.411 82.4491H704.932C706.775 82.4961 708.577 81.9047 710.034 80.7751ZM759.309 67.7291L769.772 82.4541H792.372V26.0041H777.909V70.1751L764.088 46.5371H754.53L740.709 70.1751V26.0041H726.109V82.4491H748.847L759.309 67.7291Z" fill="#5231BD"/>
</g>
<defs>
<filter id="filter0_d_576_17" x="5.78128" y="2.56641" width="130.625" height="130.793" filterUnits="userSpaceOnUse" color-interpolation-filters="sRGB">
<feFlood flood-opacity="0" result="BackgroundImageFix"/>
<feColorMatrix in="SourceAlpha" type="matrix" values="0 0 0 0 0 0 0 0 0 0 0 0 0 0 0 0 0 0 127 0" result="hardAlpha"/>
<feOffset dy="12"/>
<feGaussianBlur stdDeviation="5.916"/>
<feColorMatrix type="matrix" values="0 0 0 0 0 0 0 0 0 0 0 0 0 0 0 0 0 0 0.78 0"/>
<feBlend mode="normal" in2="BackgroundImageFix" result="effect1_dropShadow_576_17"/>
<feBlend mode="normal" in="SourceGraphic" in2="effect1_dropShadow_576_17" result="shape"/>
</filter>
<filter id="filter1_d_576_17" x="0.378938" y="0" width="129.834" height="125.826" filterUnits="userSpaceOnUse" color-interpolation-filters="sRGB">
<feFlood flood-opacity="0" result="BackgroundImageFix"/>
<feColorMatrix in="SourceAlpha" type="matrix" values="0 0 0 0 0 0 0 0 0 0 0 0 0 0 0 0 0 0 127 0" result="hardAlpha"/>
<feOffset dy="12"/>
<feGaussianBlur stdDeviation="5.916"/>
<feColorMatrix type="matrix" values="0 0 0 0 0 0 0 0 0 0 0 0 0 0 0 0 0 0 0.78 0"/>
<feBlend mode="normal" in2="BackgroundImageFix" result="effect1_dropShadow_576_17"/>
<feBlend mode="normal" in="SourceGraphic" in2="effect1_dropShadow_576_17" result="shape"/>
</filter>
<filter id="filter2_d_576_17" x="170.168" y="26" width="350.711" height="80.5439" filterUnits="userSpaceOnUse" color-interpolation-filters="sRGB">
<feFlood flood-opacity="0" result="BackgroundImageFix"/>
<feColorMatrix in="SourceAlpha" type="matrix" values="0 0 0 0 0 0 0 0 0 0 0 0 0 0 0 0 0 0 127 0" result="hardAlpha"/>
<feOffset dy="12"/>
<feGaussianBlur stdDeviation="5.916"/>
<feColorMatrix type="matrix" values="0 0 0 0 0 0 0 0 0 0 0 0 0 0 0 0 0 0 0.78 0"/>
<feBlend mode="normal" in2="BackgroundImageFix" result="effect1_dropShadow_576_17"/>
<feBlend mode="normal" in="SourceGraphic" in2="effect1_dropShadow_576_17" result="shape"/>
</filter>
<filter id="filter3_d_576_17" x="540.168" y="26" width="264.035" height="80.2861" filterUnits="userSpaceOnUse" color-interpolation-filters="sRGB">
<feFlood flood-opacity="0" result="BackgroundImageFix"/>
<feColorMatrix in="SourceAlpha" type="matrix" values="0 0 0 0 0 0 0 0 0 0 0 0 0 0 0 0 0 0 127 0" result="hardAlpha"/>
<feOffset dy="12"/>
<feGaussianBlur stdDeviation="5.916"/>
<feColorMatrix type="matrix" values="0 0 0 0 0 0 0 0 0 0 0 0 0 0 0 0 0 0 0.78 0"/>
<feBlend mode="normal" in2="BackgroundImageFix" result="effect1_dropShadow_576_17"/>
<feBlend mode="normal" in="SourceGraphic" in2="effect1_dropShadow_576_17" result="shape"/>
</filter>
</defs>
</svg>
