<svg width="400" height="267" viewBox="0 0 400 267" fill="none" xmlns="http://www.w3.org/2000/svg">
<path fill-rule="evenodd" clip-rule="evenodd" d="M300 255.531H75C40.4875 255.531 12.5 230.698 12.5 200.062C12.5 169.427 40.4875 144.594 75 144.594C78.4562 144.594 81.25 142.114 81.25 139.047C81.25 135.991 78.475 133.522 75.0313 133.511H75.125C75.0813 133.511 75.0438 133.5 75 133.5C70.1812 133.5 65.4937 133.944 60.9312 134.715C54.2062 128.702 50 120.454 50 111.312C50 92.9302 66.7938 78.0312 87.5 78.0312C97.8562 78.0312 107.231 81.7587 114.019 87.7827C114.019 87.7827 120.312 93.2852 125 89.1361C129.688 84.9759 122.856 79.9394 122.856 79.9394C118.944 76.4726 114.362 73.6104 109.337 71.4471C109.35 71.4471 109.362 71.4471 109.375 71.4582C126.719 36.1579 166.337 11.4688 212.5 11.4688C267 11.4688 312.425 45.8538 322.775 91.5212C322.8 91.5323 322.819 91.5323 322.844 91.5434C315.494 90.0125 307.875 89.125 300 89.125C296.544 89.125 293.75 91.6045 293.75 94.6719C293.75 97.7393 296.544 100.219 300 100.219C348.325 100.219 387.5 134.987 387.5 177.875C387.5 220.752 348.325 255.531 300 255.531Z" fill="#45AAB8"/>
<path fill-rule="evenodd" clip-rule="evenodd" d="M336.031 95.16C327.194 41.5661 275.337 0.375 212.5 0.375C160.856 0.375 116.544 28.1759 97.4875 67.825C94.2562 67.2426 90.925 66.9375 87.5 66.9375C59.8875 66.9375 37.5 86.8064 37.5 111.312C37.5 121.397 41.3375 130.66 47.725 138.115C19.8063 147.8 0 171.851 0 200.062C0 236.822 33.5813 266.625 75 266.625H300C355.231 266.625 400 226.898 400 177.875C400 140.14 373.431 107.995 336.031 95.16ZM300 255.531H75C40.4875 255.531 12.5 230.698 12.5 200.062C12.5 169.427 40.4875 144.594 75 144.594C78.4562 144.594 81.25 142.114 81.25 139.047C81.25 135.991 78.475 133.522 75.0313 133.511H75.125C75.0813 133.511 75.0438 133.5 75 133.5C70.1812 133.5 65.4937 133.944 60.9312 134.715C54.2062 128.702 50 120.454 50 111.312C50 92.9302 66.7938 78.0312 87.5 78.0312C97.8562 78.0312 107.231 81.7587 114.019 87.7827C114.019 87.7827 120.312 93.2852 125 89.1361C129.688 84.9759 122.856 79.9394 122.856 79.9394C118.944 76.4726 114.362 73.6104 109.337 71.4471C109.35 71.4471 109.362 71.4471 109.375 71.4582C126.719 36.1579 166.337 11.4688 212.5 11.4688C267 11.4688 312.425 45.8538 322.775 91.5212C322.8 91.5323 322.819 91.5323 322.844 91.5434C315.494 90.0125 307.875 89.125 300 89.125C296.544 89.125 293.75 91.6045 293.75 94.6719C293.75 97.7393 296.544 100.219 300 100.219C348.325 100.219 387.5 134.987 387.5 177.875C387.5 220.752 348.325 255.531 300 255.531Z" fill="#394240"/>
<path fill-rule="evenodd" clip-rule="evenodd" d="M300 122.406C296.544 122.406 293.75 124.886 293.75 127.953C293.75 131.021 296.544 133.5 300 133.5C327.613 133.5 350 153.369 350 177.875C350 180.942 352.794 183.422 356.25 183.422C359.706 183.422 362.5 180.942 362.5 177.875C362.5 147.24 334.512 122.406 300 122.406Z" fill="#394240"/>
<path fill-rule="evenodd" clip-rule="evenodd" d="M117.675 151.7C112.988 155.771 119.194 160.83 119.194 160.83C130.506 170.875 137.5 184.743 137.5 200.063C137.5 203.131 140.294 205.61 143.75 205.61C147.206 205.61 150 203.131 150 200.063C150 181.681 141.6 165.04 128.031 152.992C128.031 152.992 122.363 147.628 117.675 151.7Z" fill="#394240"/>
</svg>
