<svg width="419" height="260" viewBox="0 0 419 260" fill="none" xmlns="http://www.w3.org/2000/svg">
<path d="M52.3557 244.197H5.09836C3.81869 244.195 2.59185 243.686 1.68695 242.782C0.782055 241.877 0.273012 240.65 0.271484 239.37V174.226C0.273012 172.946 0.782055 171.719 1.68695 170.815C2.59185 169.91 3.81869 169.401 5.09836 169.399H52.3557C53.6353 169.401 54.8622 169.91 55.7671 170.815C56.672 171.719 57.181 172.946 57.1826 174.226V239.37C57.181 240.65 56.672 241.877 55.7671 242.782C54.8622 243.686 53.6353 244.195 52.3557 244.197Z" fill="#E6E6E6"/>
<path d="M138.535 244.197H91.2781C89.9984 244.196 88.7715 243.687 87.8666 242.782C86.9617 241.877 86.4527 240.65 86.4512 239.37V112.437C86.4527 111.157 86.9617 109.93 87.8666 109.026C88.7715 108.121 89.9984 107.612 91.2781 107.61H138.535C139.815 107.612 141.042 108.121 141.947 109.026C142.852 109.93 143.361 111.157 143.362 112.437V239.37C143.361 240.65 142.852 241.877 141.947 242.782C141.042 243.687 139.815 244.196 138.535 244.197Z" fill="#E6E6E6"/>
<path d="M224.715 244.197H177.458C176.178 244.195 174.951 243.686 174.046 242.782C173.141 241.877 172.632 240.65 172.631 239.37V174.226C172.632 172.946 173.141 171.719 174.046 170.815C174.951 169.91 176.178 169.401 177.458 169.399H224.715C225.995 169.401 227.222 169.91 228.126 170.815C229.031 171.719 229.54 172.946 229.542 174.226V239.37C229.54 240.65 229.031 241.877 228.126 242.782C227.222 243.686 225.995 244.195 224.715 244.197Z" fill="#E6E6E6"/>
<path d="M310.895 244.197H263.637C262.387 244.224 261.177 243.754 260.272 242.89C259.367 242.027 258.842 240.84 258.811 239.589V87.8277C258.842 86.5773 259.367 85.3902 260.272 84.5265C261.177 83.6628 262.387 83.1929 263.637 83.2198H310.895C312.145 83.1929 313.355 83.6628 314.26 84.5265C315.165 85.3902 315.69 86.5773 315.722 87.8277V239.589C315.69 240.84 315.165 242.027 314.26 242.89C313.356 243.754 312.145 244.224 310.895 244.197Z" fill="#E6E6E6"/>
<path d="M397.074 244.196H349.817C348.537 244.195 347.311 243.686 346.406 242.781C345.501 241.876 344.992 240.649 344.99 239.37V44.1429C344.992 42.8633 345.501 41.6364 346.406 40.7316C347.311 39.8268 348.537 39.3178 349.817 39.3164H397.074C398.354 39.3178 399.581 39.8268 400.486 40.7316C401.391 41.6364 401.9 42.8633 401.901 44.1429V239.37C401.9 240.649 401.391 241.876 400.486 242.781C399.581 243.686 398.354 244.195 397.074 244.196Z" fill="#F2F2F2"/>
<path d="M28.7269 149.886C34.1151 149.886 38.4831 145.518 38.4831 140.13C38.4831 134.742 34.1151 130.374 28.7269 130.374C23.3387 130.374 18.9707 134.742 18.9707 140.13C18.9707 145.518 23.3387 149.886 28.7269 149.886Z" fill="#3F3D56"/>
<path d="M114.907 86.4713C120.295 86.4713 124.663 82.1034 124.663 76.7152C124.663 71.327 120.295 66.959 114.907 66.959C109.518 66.959 105.15 71.327 105.15 76.7152C105.15 82.1034 109.518 86.4713 114.907 86.4713Z" fill="#3F3D56"/>
<path d="M201.086 149.886C206.474 149.886 210.842 145.518 210.842 140.13C210.842 134.742 206.474 130.374 201.086 130.374C195.698 130.374 191.33 134.742 191.33 140.13C191.33 145.518 195.698 149.886 201.086 149.886Z" fill="#3F3D56"/>
<path d="M287.266 55.5768C292.654 55.5768 297.022 51.2088 297.022 45.8206C297.022 40.4324 292.654 36.0645 287.266 36.0645C281.878 36.0645 277.51 40.4324 277.51 45.8206C277.51 51.2088 281.878 55.5768 287.266 55.5768Z" fill="#3F3D56"/>
<path d="M373.446 19.8044C378.834 19.8044 383.202 15.4364 383.202 10.0482C383.202 4.65998 378.834 0.291992 373.446 0.291992C368.057 0.291992 363.689 4.65998 363.689 10.0482C363.689 15.4364 368.057 19.8044 373.446 19.8044Z" fill="#3F3D56"/>
<path d="M201.292 142.316L114.906 77.6129L29.702 141.432L27.752 138.829L114.906 73.5489L200.88 137.945L286.315 44.4509L286.658 44.3119L372.837 9.58887L374.053 12.6059L288.216 47.1899L201.292 142.316Z" fill="#3F3D56"/>
<path d="M413.836 259.763H366.579C365.299 259.761 364.072 259.252 363.167 258.348C362.263 257.443 361.753 256.216 361.752 254.936V59.7093C361.753 58.4297 362.263 57.2028 363.167 56.298C364.072 55.3932 365.299 54.8842 366.579 54.8828H413.836C415.116 54.8842 416.343 55.3932 417.248 56.298C418.152 57.2028 418.661 58.4297 418.663 59.7093V254.936C418.661 256.216 418.152 257.443 417.248 258.348C416.343 259.252 415.116 259.761 413.836 259.763Z" fill="#1D92DE"/>
</svg>
