<svg width="442" height="438" viewBox="0 0 442 438" fill="none" xmlns="http://www.w3.org/2000/svg">
<path d="M311.837 17.28C294.708 6.70687 274.932 1.18452 254.792 1.35031C234.652 1.51624 214.969 7.36374 198.016 18.2175C165.138 40.0925 157.467 82.1237 151.048 119.311C146.664 142.748 142.123 167.123 131.947 177.436C126.624 182.592 115.038 181.03 97.9732 177.436C78.0898 173.842 53.3529 169.311 33.1563 184.155C17.5001 195.717 7.7932 216.342 3.72257 247.592C0.0485203 269.72 1.2849 292.383 7.34449 313.98C13.4041 335.578 24.1393 355.586 38.7926 372.592C74.3323 413.998 135.861 437.748 206.784 437.748C353.796 437.748 441.628 334.623 441.628 234.623C441.628 154.311 382.134 54.78 311.837 17.28Z" fill="#F9A825"/>
<path d="M93.9023 319.311H92.4933C88.5009 318.836 84.6861 317.392 81.3833 315.103C78.0804 312.816 75.3905 309.753 73.5492 306.186C70.7049 301.728 69.0402 296.622 68.711 291.347C68.3817 286.07 69.3986 280.799 71.6665 276.022C73.9344 271.245 77.3792 267.12 81.6787 264.034C85.9782 260.949 90.992 259 96.2508 258.374C100.162 257.517 104.224 257.639 108.075 258.73C111.927 259.82 115.449 261.845 118.326 264.624C121.913 269.513 123.924 275.374 124.092 281.431C124.259 287.488 122.576 293.452 119.265 298.53C112.846 311.811 103.766 319.311 93.9023 319.311Z" fill="#43A047"/>
<path d="M190.188 372.748C185.273 372.677 180.445 371.45 176.093 369.17C171.742 366.891 167.989 363.62 165.138 359.624C162.48 356.622 160.602 353.014 159.674 349.117C158.746 345.219 158.794 341.153 159.815 337.28C162.321 331.772 166.452 327.161 171.656 324.061C176.861 320.961 182.889 319.522 188.935 319.936C194.891 318.642 201.1 319.225 206.71 321.603C212.318 323.983 217.049 328.041 220.248 333.217C221.84 336.895 222.474 340.916 222.092 344.905C221.709 348.894 220.32 352.72 218.056 356.03C215.39 360.47 211.695 364.206 207.281 366.925C202.868 369.644 197.866 371.266 192.693 371.655L190.188 372.748Z" fill="#039BE5"/>
<path d="M300.564 340.248C295.627 340.241 290.757 339.119 286.317 336.967C282.622 335.423 279.354 333.012 276.791 329.937C274.23 326.864 272.448 323.219 271.6 319.311C270.034 308.998 276.766 298.686 290.231 290.873C294.998 287.144 300.797 284.966 306.845 284.63C312.892 284.294 318.897 285.819 324.048 288.998C327.05 291.669 329.357 295.025 330.776 298.781C332.194 302.536 332.678 306.578 332.19 310.561C331.837 315.753 330.229 320.783 327.502 325.219C324.776 329.655 321.013 333.364 316.533 336.03C311.685 338.837 306.17 340.294 300.564 340.248Z" fill="#3949AB"/>
<path d="M271.443 139.156C265.988 139.806 260.462 138.835 255.56 136.36C250.656 133.886 246.597 130.021 243.888 125.25C242.384 121.537 241.825 117.51 242.261 113.529C242.698 109.548 244.118 105.737 246.393 102.438C248.944 97.7232 252.665 93.7424 257.201 90.8773C261.738 88.0123 266.936 86.3591 272.296 86.0766C277.657 85.7943 283.001 86.8921 287.813 89.2646C292.626 91.6373 296.747 95.2049 299.781 99.6251C302.4 102.648 304.241 106.263 305.142 110.157C306.042 114.051 305.975 118.106 304.947 121.969C301.66 131.969 291.013 137.594 275.514 139L271.443 139.156Z" fill="#E53935"/>
<path d="M337.982 237.281C336.13 237.262 334.287 237 332.502 236.5C322.482 233.531 316.846 223.062 314.654 207.75C313.343 201.872 313.854 195.734 316.118 190.153C318.383 184.572 322.296 179.809 327.335 176.5C330.999 174.911 334.994 174.237 338.977 174.536C342.96 174.836 346.81 176.1 350.194 178.219C354.9 180.626 358.919 184.186 361.873 188.564C364.829 192.942 366.625 197.995 367.093 203.253C367.563 208.511 366.689 213.801 364.555 218.631C362.421 223.462 359.097 227.673 354.89 230.875C350.183 234.925 344.197 237.194 337.982 237.281Z" fill="#8E24AA"/>
<path d="M205.844 281.498C201.692 281.498 197.709 279.853 194.773 276.922C191.838 273.992 190.188 270.017 190.188 265.873V234.623C190.188 210.092 208.975 204.779 232.616 203.373L228.389 200.404C225.19 198.004 223.034 194.472 222.364 190.534C221.694 186.597 222.56 182.553 224.785 179.233C227.009 175.912 230.424 173.569 234.326 172.683C238.229 171.797 242.323 172.434 245.767 174.467C284.282 200.092 279.898 214.154 278.332 219.467C276.767 224.779 270.504 234.623 252.812 234.623C242.354 234.222 231.88 234.692 221.5 236.029V265.873C221.5 270.017 219.85 273.992 216.914 276.922C213.979 279.853 209.996 281.498 205.844 281.498Z" fill="#C62828"/>
<path d="M197.86 18.0615C164.982 39.9365 157.154 81.9678 150.891 119.155C146.507 142.749 142.124 166.967 131.791 177.28C126.624 182.436 115.039 180.874 97.9734 177.28C78.0899 173.686 53.3531 169.311 32.9999 183.999C17.3437 195.561 7.79337 216.186 3.72275 247.436C0.016756 269.552 1.22276 292.211 7.25574 313.81C13.2886 335.41 24.001 355.424 38.6362 372.436C74.1759 413.842 135.548 437.749 205.845 437.749C210.698 437.749 215.238 437.749 219.935 437.749V6.96777C212.153 9.75543 204.739 13.4809 197.86 18.0615Z" fill="#FBC02D"/>
<path d="M93.5881 319.155H92.179C88.2028 318.63 84.4096 317.164 81.1148 314.882C77.8199 312.599 75.1186 309.564 73.235 306.03C70.3848 301.55 68.7249 296.419 68.4118 291.121C68.0986 285.824 69.1426 280.533 71.4453 275.749C73.7479 270.966 77.2334 266.846 81.5732 263.779C85.9128 260.711 90.9636 258.797 96.2497 258.218C100.161 257.402 104.213 257.546 108.057 258.633C111.902 259.722 115.425 261.724 118.325 264.468C121.912 269.357 123.923 275.219 124.09 281.275C124.258 287.332 122.575 293.296 119.264 298.374C117.353 303.883 113.936 308.75 109.398 312.422C104.861 316.094 99.3842 318.427 93.5881 319.155Z" fill="#43A047"/>
<path d="M220.561 335.875V349.937C222.045 345.367 222.045 340.445 220.561 335.875Z" fill="#039BE5"/>
<path d="M219.935 333.688C216.704 328.544 211.969 324.513 206.369 322.138C200.77 319.763 194.577 319.16 188.623 320.407C182.474 319.86 176.307 321.236 170.978 324.343C165.647 327.45 161.418 332.136 158.876 337.751C158.018 341.605 158.112 345.61 159.148 349.421C160.185 353.23 162.132 356.733 164.825 359.625C167.831 363.486 171.675 366.618 176.068 368.783C180.461 370.947 185.289 372.091 190.188 372.125H192.224C197.423 371.761 202.458 370.151 206.9 367.43C211.343 364.71 215.063 360.961 217.743 356.5C218.944 354.433 219.89 352.23 220.561 349.938V335.875C220.447 335.122 220.237 334.388 219.935 333.688Z" fill="#039BE5"/>
<path d="M189.248 234.625V265.875C189.248 270.019 190.898 273.994 193.834 276.923C196.769 279.853 200.752 281.5 204.904 281.5C209.056 281.5 213.039 279.853 215.975 276.923C218.91 273.994 220.561 270.019 220.561 265.875V205.25C202.399 207.75 189.248 214.625 189.248 234.625Z" fill="#F4511E"/>
<path d="M205.843 436.655C134.92 436.655 73.5477 413.061 37.3818 371.967C22.7838 354.933 12.0948 334.917 6.06383 313.324C0.0328887 291.731 -1.19425 269.084 2.46837 246.967C6.539 215.717 16.0893 195.092 31.9021 183.53C52.0987 168.842 76.8356 173.217 96.719 176.811C113.784 179.936 125.37 181.499 130.693 176.811C140.869 166.499 145.41 142.28 149.794 118.687C156.526 81.4993 164.354 39.4681 196.762 17.5931C213.749 6.45011 233.567 0.370114 253.892 0.0657388C274.217 -0.238792 294.208 5.24511 311.523 15.8743C381.976 53.9993 440.687 153.374 440.687 233.53C440.687 333.374 353.481 436.655 205.843 436.655ZM67.2853 204.624C61.7345 204.395 56.2539 205.927 51.629 208.999C40.525 220.238 34.0927 235.253 33.6243 251.03C30.4293 268.731 31.2309 286.922 35.9707 304.275C40.7105 321.628 49.269 337.708 61.0227 351.342C91.0827 385.717 144.001 405.405 205.843 405.405C333.285 405.405 409.374 317.905 409.374 233.53C409.374 164.78 356.456 76.1868 296.179 43.8431C284.047 35.9496 269.877 31.747 255.395 31.747C240.913 31.747 226.742 35.9496 214.61 43.8431C192.692 58.2181 186.586 91.9681 180.48 124.468C175 153.999 169.834 181.967 152.768 198.999C135.703 216.03 111.906 211.967 91.2393 208.217C83.3658 206.372 75.3546 205.17 67.2853 204.624Z" fill="#263238"/>
</svg>
