<svg width="598" height="417" viewBox="0 0 598 417" fill="none" xmlns="http://www.w3.org/2000/svg">
<path d="M579.209 416.963H18.7911C13.8074 416.963 9.0278 414.983 5.50378 411.459C1.97977 407.935 0 403.155 0 398.171C203.151 374.561 402.485 374.561 598 398.171C598 403.155 596.02 407.935 592.496 411.459C588.972 414.983 584.193 416.963 579.209 416.963Z" fill="#2F2E41"/>
<path d="M598 399.277L0 398.172L69.3061 281.556L69.6377 281.004V23.9964C69.6374 20.8769 70.2517 17.7878 71.4454 14.9057C72.639 12.0236 74.3887 9.40488 76.5946 7.19905C78.8004 4.99322 81.4191 3.2435 84.3012 2.04984C87.1833 0.856168 90.2724 0.241928 93.3919 0.242188H501.292C504.412 0.241928 507.501 0.856168 510.383 2.04984C513.265 3.2435 515.883 4.99322 518.089 7.19905C520.295 9.40488 522.045 12.0236 523.239 14.9057C524.432 17.7878 525.046 20.8769 525.046 23.9964V282.772L598 399.277Z" fill="#3F3D56"/>
<path d="M92.8508 16.8223C90.7994 16.8246 88.8326 17.6405 87.3821 19.0911C85.9315 20.5416 85.1156 22.5084 85.1133 24.5598V258.896C85.1157 260.948 85.9316 262.914 87.3822 264.365C88.8327 265.815 90.7994 266.631 92.8508 266.634H505.15C507.202 266.631 509.168 265.815 510.619 264.365C512.069 262.914 512.885 260.948 512.888 258.896V24.5598C512.885 22.5084 512.069 20.5417 510.619 19.0912C509.168 17.6406 507.202 16.8247 505.15 16.8223H92.8508Z" fill="white"/>
<path d="M94.578 297.584C93.9441 297.585 93.3237 297.767 92.7899 298.109C92.2562 298.451 91.8312 298.939 91.5653 299.514L70.2099 345.939C69.9774 346.444 69.8757 347 69.9142 347.555C69.9527 348.11 70.1301 348.646 70.4301 349.114C70.73 349.582 71.143 349.968 71.6309 350.235C72.1188 350.501 72.666 350.641 73.2221 350.641H522.314C522.879 350.641 523.435 350.497 523.929 350.222C524.423 349.946 524.838 349.549 525.135 349.068C525.432 348.588 525.601 348.039 525.627 347.474C525.652 346.909 525.532 346.348 525.279 345.842L502.067 299.417C501.793 298.865 501.37 298.401 500.846 298.077C500.322 297.753 499.718 297.582 499.102 297.584H94.578Z" fill="#2F2E41"/>
<path d="M297.341 12.9541C300.088 12.9541 302.315 10.7271 302.315 7.97998C302.315 5.23285 300.088 3.00586 297.341 3.00586C294.594 3.00586 292.367 5.23285 292.367 7.97998C292.367 10.7271 294.594 12.9541 297.341 12.9541Z" fill="white"/>
<path d="M253.2 359.484C252.471 359.485 251.763 359.726 251.184 360.169C250.605 360.613 250.189 361.234 249.998 361.938L244.642 381.834C244.509 382.326 244.492 382.841 244.59 383.341C244.689 383.84 244.902 384.31 245.211 384.714C245.521 385.118 245.919 385.445 246.376 385.671C246.832 385.896 247.334 386.013 247.843 386.013H349.717C350.246 386.013 350.767 385.887 351.237 385.644C351.707 385.402 352.112 385.051 352.418 384.62C352.725 384.19 352.924 383.692 352.999 383.169C353.074 382.645 353.023 382.112 352.85 381.612L345.963 361.716C345.737 361.064 345.314 360.499 344.752 360.099C344.191 359.7 343.519 359.485 342.829 359.484H253.2Z" fill="#2F2E41"/>
<path d="M525.047 277.135V281.556H69.3066L69.6496 281.004V277.135H525.047Z" fill="#2F2E41"/>
<path d="M458.32 187.149H139.68C138.116 187.147 136.616 186.525 135.51 185.419C134.403 184.313 133.781 182.813 133.779 181.248V102.207C133.781 100.643 134.403 99.1432 135.51 98.037C136.616 96.9308 138.116 96.3085 139.68 96.3066H458.32C459.884 96.3085 461.384 96.9308 462.49 98.037C463.596 99.1432 464.219 100.643 464.221 102.207V181.248C464.219 182.813 463.596 184.313 462.49 185.419C461.384 186.525 459.884 187.147 458.32 187.149ZM139.68 98.667C138.741 98.668 137.841 99.0413 137.178 99.7051C136.514 100.369 136.141 101.269 136.14 102.207V181.248C136.141 182.187 136.514 183.087 137.178 183.751C137.841 184.414 138.741 184.788 139.68 184.789H458.32C459.259 184.788 460.158 184.414 460.822 183.751C461.486 183.087 461.859 182.187 461.86 181.248V102.207C461.859 101.269 461.486 100.369 460.822 99.705C460.158 99.0413 459.259 98.668 458.32 98.6669L139.68 98.667Z" fill="#E6E6E6"/>
<path d="M189.191 162.732C202.466 162.732 213.227 151.971 213.227 138.696C213.227 125.421 202.466 114.659 189.191 114.659C175.916 114.659 165.154 125.421 165.154 138.696C165.154 151.971 175.916 162.732 189.191 162.732Z" fill="#E6E6E6"/>
<path d="M244.704 122.671C244.177 122.67 243.656 122.773 243.169 122.974C242.682 123.175 242.24 123.47 241.867 123.842C241.494 124.214 241.199 124.656 240.997 125.142C240.795 125.629 240.691 126.15 240.691 126.677C240.691 127.204 240.795 127.725 240.997 128.211C241.199 128.698 241.494 129.14 241.867 129.512C242.24 129.884 242.682 130.179 243.169 130.38C243.656 130.581 244.177 130.684 244.704 130.683H433.562C434.624 130.683 435.643 130.261 436.394 129.51C437.146 128.758 437.568 127.739 437.568 126.677C437.568 125.614 437.146 124.596 436.394 123.844C435.643 123.093 434.624 122.671 433.562 122.671H244.704Z" fill="#E6E6E6"/>
<path d="M244.703 146.708C243.641 146.708 242.622 147.13 241.871 147.881C241.119 148.633 240.697 149.652 240.697 150.714C240.697 151.777 241.119 152.796 241.871 153.547C242.622 154.298 243.641 154.72 244.703 154.72H325.969C327.032 154.72 328.051 154.298 328.802 153.547C329.553 152.796 329.975 151.777 329.975 150.714C329.975 149.652 329.553 148.633 328.802 147.881C328.051 147.13 327.032 146.708 325.969 146.708H244.703Z" fill="#E6E6E6"/>
</svg>
