<svg width="512" height="423" viewBox="0 0 512 423" fill="none" xmlns="http://www.w3.org/2000/svg">
<path d="M512 16.015V422.681H0.239V65.175H0V19.52H0.478C0.16 18.406 0 17.209 0 16.015C0 7.17 7.171 0 16.015 0H495.985C504.829 0 512 7.17 512 16.015Z" fill="#626143"/>
<path d="M502.732 62.6777H9.26953V412.07H502.732V62.6777Z" fill="white"/>
<path opacity="0.06" d="M502.732 62.6777H9.26953V83.4407H502.732V62.6777Z" fill="#040000"/>
<path d="M462.396 115.971V178.019H420.746L379.337 216.11L311.439 153.665L273.395 188.647H237.869V115.971H462.396Z" fill="#F4AE9E"/>
<path d="M462.396 178.018V247.188H237.869V188.646H273.395L311.439 153.664L379.337 216.109L420.746 178.018H462.396Z" fill="#F9C98E"/>
<path d="M462.396 174.364V182.336H422.754L379.422 222.074L311.325 159.63L274.965 192.964H237.869V184.993H271.359L311.325 148.363L379.422 210.807L419.148 174.364H462.396Z" fill="#F8F6BD"/>
<path d="M312.427 164.684C316.842 164.684 320.422 161.189 320.422 156.877C320.422 152.566 316.842 149.07 312.427 149.07C308.011 149.07 304.432 152.566 304.432 156.877C304.432 161.189 308.011 164.684 312.427 164.684Z" fill="#FDFCE2"/>
<path d="M420.747 185.825C425.162 185.825 428.742 182.33 428.742 178.018C428.742 173.706 425.162 170.211 420.747 170.211C416.331 170.211 412.752 173.706 412.752 178.018C412.752 182.33 416.331 185.825 420.747 185.825Z" fill="#FDFCE2"/>
<path d="M379.251 223.62C383.666 223.62 387.246 220.125 387.246 215.813C387.246 211.501 383.666 208.006 379.251 208.006C374.835 208.006 371.256 211.501 371.256 215.813C371.256 220.125 374.835 223.62 379.251 223.62Z" fill="#FDFCE2"/>
<path d="M274.243 194.29C278.659 194.29 282.238 190.794 282.238 186.483C282.238 182.171 278.659 178.676 274.243 178.676C269.828 178.676 266.248 182.171 266.248 186.483C266.248 190.794 269.828 194.29 274.243 194.29Z" fill="#FDFCE2"/>
<path d="M125.815 45.4827C132.52 45.4827 137.956 39.6969 137.956 32.5597C137.956 25.4225 132.52 19.6367 125.815 19.6367C119.11 19.6367 113.674 25.4225 113.674 32.5597C113.674 39.6969 119.11 45.4827 125.815 45.4827Z" fill="#7EC165"/>
<path d="M81.6488 45.4827C88.3541 45.4827 93.7898 39.6969 93.7898 32.5597C93.7898 25.4225 88.3541 19.6367 81.6488 19.6367C74.9435 19.6367 69.5078 25.4225 69.5078 32.5597C69.5078 39.6969 74.9435 45.4827 81.6488 45.4827Z" fill="#E8CF5F"/>
<path d="M37.4848 45.4827C44.19 45.4827 49.6257 39.6969 49.6257 32.5597C49.6257 25.4225 44.19 19.6367 37.4848 19.6367C30.7795 19.6367 25.3438 25.4225 25.3438 32.5597C25.3438 39.6969 30.7795 45.4827 37.4848 45.4827Z" fill="#D3566A"/>
<path opacity="0.5" d="M130.359 305.566H53.6992V369.572H130.359V305.566Z" fill="#73778E"/>
<g opacity="0.5">
<path d="M193.765 356.287H142.537V365.103H193.765V356.287Z" fill="#73778E"/>
<path d="M248.352 308.166H142.537V317.382H248.352V308.166Z" fill="#73778E"/>
<path d="M248.352 332.127H142.537V341.343H248.352V332.127Z" fill="#73778E"/>
</g>
<path opacity="0.5" d="M348.43 305.566H271.77V369.572H348.43V305.566Z" fill="#73778E"/>
<g opacity="0.5">
<path d="M411.835 356.287H360.607V365.103H411.835V356.287Z" fill="#73778E"/>
<path d="M466.422 308.166H360.607V317.382H466.422V308.166Z" fill="#73778E"/>
<path d="M466.422 332.127H360.607V341.343H466.422V332.127Z" fill="#73778E"/>
</g>
<path d="M206.196 171.055C202.867 156.823 195.959 143.665 186.236 132.826C176.506 121.98 163.953 113.463 149.28 108.574C147.766 108.069 146.234 107.596 144.676 107.17C130.891 103.401 116.98 103.208 103.903 105.987C88.4357 109.274 74.1447 116.738 62.6387 127.49L126.476 191.98L205.376 213.553C209.31 199.163 209.372 184.628 206.196 171.055Z" fill="#F2A381"/>
<path d="M205.375 213.554C209.31 199.163 209.371 184.628 206.196 171.055L126.475 191.982L184.459 250.559C194.098 240.489 201.44 227.945 205.375 213.554Z" fill="#DCDE67"/>
<path d="M98.9923 274.254C85.3473 270.523 73.3753 263.714 63.5973 254.799C63.4873 254.714 63.3913 254.621 63.2943 254.528C51.6433 243.827 43.1403 230.129 38.7043 215.016C34.3453 200.146 33.9053 183.919 38.2933 167.871C42.6813 151.823 51.3163 138.078 62.6343 127.494L126.475 191.982L103.67 275.39C102.111 275.051 100.55 274.68 98.9923 274.254Z" fill="#648988"/>
<path d="M103.671 275.388C118.787 278.645 133.933 277.698 147.823 273.315C147.946 273.271 148.079 273.23 148.202 273.186C161.942 268.785 174.441 261.017 184.462 250.555L126.78 192.285L126.713 192.045L126.623 192.131L126.476 191.98L126.363 192.393L63.5977 254.799C73.3757 263.713 85.3477 270.523 98.9927 274.254C100.551 274.679 102.112 275.05 103.671 275.388Z" fill="#B1D470"/>
<path d="M462.398 256.971H429.49V277.284H462.398V256.971Z" fill="#71C6CB"/>
<path d="M420.154 256.971H387.246V277.284H420.154V256.971Z" fill="#D8DA80"/>
<path d="M377.912 256.971H345.004V277.284H377.912V256.971Z" fill="#D99C65"/>
<path d="M335.67 256.971H302.762V277.284H335.67V256.971Z" fill="#648988"/>
</svg>
